<svg width="768" height="768" viewBox="0 0 768 768" fill="none" xmlns="http://www.w3.org/2000/svg">
  <defs>
    <linearGradient id="africa" x1="120" y1="80" x2="620" y2="620" gradientUnits="userSpaceOnUse">
      <stop stop-color="#D97706"/>
      <stop offset="0.55" stop-color="#F59E0B"/>
      <stop offset="1" stop-color="#15803D"/>
    </linearGradient>
    <linearGradient id="child" x1="280" y1="260" x2="430" y2="520" gradientUnits="userSpaceOnUse">
      <stop stop-color="#7C3F00"/>
      <stop offset="1" stop-color="#2E1A0A"/>
    </linearGradient>
  </defs>

  <path d="M190 118C230 84 322 72 350 74C385 77 368 110 380 126C393 143 428 135 438 149C450 167 428 181 446 194C470 210 511 184 535 195C550 203 550 229 559 249C575 286 630 288 650 305C662 316 656 342 639 352C617 366 582 361 566 380C548 402 557 443 541 468C523 495 485 510 474 540C460 579 474 637 443 659C411 681 366 662 332 653C303 646 270 659 243 646C202 625 182 579 167 540C151 500 120 460 120 423C120 391 143 361 140 329C136 291 105 249 116 215C127 182 162 147 190 118Z" stroke="url(#africa)" stroke-width="14" stroke-linecap="round" stroke-linejoin="round"/>

  <path d="M241 236C291 186 375 170 441 188C493 203 529 236 553 277" stroke="#F59E0B" stroke-width="18" stroke-linecap="round"/>
  <path d="M246 530C280 566 330 588 384 592C438 595 491 575 528 538" stroke="#15803D" stroke-width="18" stroke-linecap="round"/>

  <circle cx="350" cy="286" r="54" fill="url(#child)"/>
  <path d="M306 350C323 331 346 321 370 322C408 323 434 351 440 385C447 423 430 466 394 485C351 507 301 487 283 446C272 420 282 376 306 350Z" fill="url(#child)"/>
  <path d="M349 432C380 447 414 458 451 463" stroke="#F3F4F6" stroke-width="4" stroke-linecap="round"/>
  <path d="M286 454C323 464 359 468 398 468" stroke="#F3F4F6" stroke-width="4" stroke-linecap="round"/>

  <path d="M483 206C522 175 577 183 605 219C637 262 628 324 586 350C538 380 476 365 447 320" stroke="#166534" stroke-width="10" stroke-linecap="round"/>
  <path d="M515 243V302M546 243V302M577 243V302" stroke="#166534" stroke-width="8" stroke-linecap="round"/>
  <circle cx="515" cy="332" r="8" fill="#166534"/>
  <circle cx="546" cy="332" r="8" fill="#166534"/>
  <circle cx="577" cy="332" r="8" fill="#166534"/>
  <path d="M511 272H520M542 272H551M573 272H582" stroke="#166534" stroke-width="8" stroke-linecap="round"/>
  <path d="M510 210H583" stroke="#166534" stroke-width="8" stroke-linecap="round"/>
  <text x="548" y="285" text-anchor="middle" font-size="54" fill="#166534" font-family="Arial, sans-serif" font-weight="700">AI</text>

  <text x="384" y="700" text-anchor="middle" font-size="96" fill="#065F2D" font-family="Arial, sans-serif" font-weight="800">AI-PNAS</text>
  <text x="384" y="738" text-anchor="middle" font-size="40" fill="#3F2A1D" font-family="Arial, sans-serif" font-weight="700">DETECT EARLY. TREAT EARLIER. SAVE LIVES.</text>
</svg>
